<?xml version="1.0" encoding="UTF-8" standalone="no"?>
<svg
   xmlns:dc="http://purl.org/dc/elements/1.1/"
   xmlns:cc="http://creativecommons.org/ns#"
   xmlns:rdf="http://www.w3.org/1999/02/22-rdf-syntax-ns#"
   xmlns:svg="http://www.w3.org/2000/svg"
   xmlns="http://www.w3.org/2000/svg"
   xmlns:sodipodi="http://sodipodi.sourceforge.net/DTD/sodipodi-0.dtd"
   xmlns:inkscape="http://www.inkscape.org/namespaces/inkscape"
   inkscape:version="1.0rc1 (09960d6, 2020-04-09)"
   sodipodi:docname="ConteneurScenes.svg"
   id="svg960"
   viewBox="0 0 12 12"
   version="1.1"
   height="16"
   width="16">
  <metadata
     id="metadata964">
    <rdf:RDF>
      <cc:Work
         rdf:about="">
        <dc:format>image/svg+xml</dc:format>
        <dc:type
           rdf:resource="http://purl.org/dc/dcmitype/StillImage" />
        <dc:title />
      </cc:Work>
    </rdf:RDF>
  </metadata>
  <sodipodi:namedview
     units="px"
     inkscape:current-layer="g958"
     inkscape:window-maximized="0"
     inkscape:window-y="23"
     inkscape:window-x="70"
     inkscape:cy="6.2020786"
     inkscape:cx="6.8261224"
     inkscape:zoom="36.925601"
     showgrid="true"
     id="namedview962"
     inkscape:window-height="923"
     inkscape:window-width="1754"
     inkscape:pageshadow="2"
     inkscape:pageopacity="0"
     guidetolerance="10"
     gridtolerance="10000"
     objecttolerance="10000"
     borderopacity="1"
     bordercolor="#666666"
     pagecolor="#ffffff"
     inkscape:document-rotation="0">
    <inkscape:grid
       snapvisiblegridlinesonly="true"
       spacingy="0.75"
       spacingx="0.75"
       originy="0"
       originx="0"
       id="grid882"
       type="xygrid" />
  </sodipodi:namedview>
  <defs
     id="defs890">
    <symbol
       overflow="visible"
       id="s">
      <path
         inkscape:connector-curvature="0"
         id="path833"
         d="M 3.75,-0.21875 C 3.55078,-0.125 3.34766,-0.05078 3.14062,0 2.92968,0.050781 2.71093,0.078125 2.48437,0.078125 c -0.67969,0 -1.2148,-0.1875 -1.6094,-0.5625 -0.39844,-0.38281 -0.59375,-0.89844 -0.59375,-1.5469 0,-0.65625 0.19531,-1.1719 0.59375,-1.5469 0.39453,-0.38281 0.92969,-0.57812 1.6094,-0.57812 0.22656,0 0.44531,0.027344 0.65625,0.078125 0.20703,0.054687 0.41016,0.13281 0.60938,0.23438 v 0.84375 C 3.55078,-3.13285 3.35938,-3.23442 3.17188,-3.29692 2.98438,-3.35942 2.78516,-3.39067 2.57813,-3.39067 c -0.375,0 -0.67188,0.12109 -0.89062,0.35938 -0.21875,0.24219 -0.32812,0.57422 -0.32812,1 0,0.41797 0.10938,0.74609 0.32812,0.98438 0.21875,0.24219 0.51562,0.35938 0.89062,0.35938 0.20703,0 0.40625,-0.03125 0.59375,-0.09375 0.1875,-0.0625 0.37891,-0.15625 0.57812,-0.28125 z" />
    </symbol>
    <symbol
       overflow="visible"
       id="c">
      <path
         inkscape:connector-curvature="0"
         id="path836"
         d="M 2.75,-2.2188 C 2.65625,-2.257862 2.56641,-2.289112 2.48438,-2.31255 2.398443,-2.332081 2.31641,-2.3438 2.23438,-2.3438 c -0.25,0 -0.44531,0.085938 -0.57812,0.25 -0.13672,0.15625 -0.20312,0.38672 -0.20312,0.6875 V -1e-4 H 0.46876 v -3.0625 h 0.98438 v 0.5 c 0.125,-0.19531 0.26562,-0.34375 0.42188,-0.4375 0.16406,-0.09375 0.36328,-0.14062 0.59375,-0.14062 0.03125,0 0.0625,0.00781 0.09375,0.015625 0.039062,0 0.097656,0.00781 0.17188,0.015625 z" />
    </symbol>
    <symbol
       overflow="visible"
       id="a">
      <path
         inkscape:connector-curvature="0"
         id="path839"
         d="m 3.5156,-1.5312 v 0.26562 H 1.2344 c 0.019531,0.23047 0.10156,0.40234 0.25,0.51562 0.14453,0.11719 0.34375,0.17188 0.59375,0.17188 0.20703,0 0.41406,-0.023437 0.625,-0.078125 0.21875,-0.0625 0.44141,-0.15625 0.67188,-0.28125 v 0.75 c -0.23047,0.09375 -0.46094,0.16406 -0.6875,0.20312 -0.23047,0.039062 -0.46484,0.0625 -0.70312,0.0625 -0.55469,0 -0.98438,-0.14062 -1.2969,-0.42188 -0.30469,-0.28125 -0.45312,-0.67578 -0.45312,-1.1875 0,-0.5 0.14844,-0.89062 0.45312,-1.1719 0.30078,-0.28906 0.71875,-0.4375 1.25,-0.4375 0.47656,0 0.85938,0.14844 1.1406,0.4375 0.28906,0.29297 0.4375,0.68359 0.4375,1.1719 z m -1,-0.32812 c 0,-0.1875 -0.058594,-0.33594 -0.17188,-0.45312 -0.10547,-0.11328 -0.24219,-0.17188 -0.40625,-0.17188 -0.19922,0 -0.35547,0.058594 -0.46875,0.17188 -0.11719,0.10547 -0.1875,0.25781 -0.21875,0.45312 z" />
    </symbol>
    <symbol
       overflow="visible"
       id="e">
      <path
         inkscape:connector-curvature="0"
         id="path842"
         d="m 1.8438,-1.375 c -0.21094,0 -0.36719,0.039062 -0.46875,0.10938 -0.10547,0.0625 -0.15625,0.16406 -0.15625,0.29688 0,0.125 0.039062,0.22656 0.125,0.29688 0.082031,0.0625 0.20312,0.09375 0.35938,0.09375 0.17578,0 0.32812,-0.0625 0.45312,-0.1875 0.125,-0.13281 0.1875,-0.30078 0.1875,-0.5 V -1.37499 Z M 3.3282,-1.75 V 0 H 2.34382 v -0.45312 c -0.125,0.1875 -0.27344,0.32422 -0.4375,0.40625 -0.16797,0.082031 -0.36719,0.125 -0.59375,0.125 -0.32422,0 -0.58594,-0.085938 -0.78125,-0.26562 -0.19922,-0.1875 -0.29688,-0.42969 -0.29688,-0.73438 0,-0.35156 0.125,-0.61328 0.375,-0.78125 0.25,-0.16406 0.63281,-0.25 1.1562,-0.25 h 0.57812 v -0.078125 c 0,-0.15625 -0.0625,-0.26953 -0.1875,-0.34375 -0.11719,-0.070312 -0.30469,-0.10938 -0.5625,-0.10938 -0.21094,0 -0.40625,0.023437 -0.59375,0.0625 -0.17969,0.042969 -0.33984,0.10547 -0.48438,0.1875 v -0.75 c 0.20703,-0.039063 0.41406,-0.078125 0.625,-0.10938 0.20703,-0.03125 0.41406,-0.046875 0.625,-0.046875 0.55078,0 0.94531,0.10938 1.1875,0.32812 0.25,0.21875 0.375,0.57422 0.375,1.0625 z" />
    </symbol>
    <symbol
       overflow="visible"
       id="b">
      <path
         inkscape:connector-curvature="0"
         id="path845"
         d="m 1.5312,-3.9219 v 0.85938 H 2.5468 V -2.3594 H 1.5312 v 1.2969 c 0,0.14844 0.023438,0.24609 0.078125,0.29688 0.0625,0.042969 0.17578,0.0625 0.34375,0.0625 h 0.5 V 0 H 1.624955 C 1.238235,0 0.960895,-0.078125 0.796835,-0.23438 0.640585,-0.39844 0.562455,-0.67579 0.562455,-1.0625 v -1.2969 h -0.48438 v -0.70312 h 0.48438 V -3.9219 Z" />
    </symbol>
    <symbol
       overflow="visible"
       id="k">
      <path
         inkscape:connector-curvature="0"
         id="path848"
         d="M 2.5469,-2.6094 V -4.25 H 3.53128 V 0 H 2.5469 v -0.4375 c -0.13672,0.17969 -0.28906,0.30859 -0.45312,0.39062 -0.15625,0.082031 -0.33984,0.125 -0.54688,0.125 -0.375,0 -0.6875,-0.14453 -0.9375,-0.4375 -0.24219,-0.30078 -0.35938,-0.69141 -0.35938,-1.1719 0,-0.46875 0.11719,-0.85156 0.35938,-1.1562 0.25,-0.30078 0.5625,-0.45312 0.9375,-0.45312 0.20703,0 0.39062,0.046875 0.54688,0.14062 0.16406,0.085938 0.31641,0.21484 0.45312,0.39062 z M 1.90628,-0.625 c 0.20703,0 0.36328,-0.078125 0.46875,-0.23438 0.11328,-0.15625 0.17188,-0.37891 0.17188,-0.67188 0,-0.28906 -0.058594,-0.50781 -0.17188,-0.65625 -0.10547,-0.15625 -0.26172,-0.23438 -0.46875,-0.23438 -0.21094,0 -0.37109,0.078125 -0.48438,0.23438 -0.10547,0.14844 -0.15625,0.36719 -0.15625,0.65625 0,0.29297 0.050781,0.51562 0.15625,0.67188 0.11328,0.15625 0.27344,0.23438 0.48438,0.23438 z" />
    </symbol>
    <symbol
       overflow="visible"
       id="j">
      <path
         inkscape:connector-curvature="0"
         id="path851"
         d="m 2.0938,-0.625 c 0.20703,0 0.36719,-0.078125 0.48438,-0.23438 0.11328,-0.15625 0.17188,-0.37891 0.17188,-0.67188 0,-0.28906 -0.058594,-0.50781 -0.17188,-0.65625 -0.11719,-0.15625 -0.27734,-0.23438 -0.48438,-0.23438 -0.21094,0 -0.37109,0.078125 -0.48438,0.23438 -0.10547,0.14844 -0.15625,0.36719 -0.15625,0.65625 0,0.29297 0.050781,0.51562 0.15625,0.67188 C 1.7227,-0.70313 1.88286,-0.625 2.0938,-0.625 Z M 1.45318,-2.6094 c 0.13281,-0.17578 0.28125,-0.30469 0.4375,-0.39062 0.16406,-0.09375 0.35156,-0.14062 0.5625,-0.14062 0.38281,0 0.69531,0.15234 0.9375,0.45312 0.23828,0.30469 0.35938,0.6875 0.35938,1.1562 0,0.48047 -0.12109,0.87109 -0.35938,1.1719 -0.24219,0.29297 -0.55469,0.4375 -0.9375,0.4375 -0.21094,0 -0.39844,-0.042969 -0.5625,-0.125 C 1.73443,-0.128951 1.58599,-0.25786 1.45318,-0.43754 V -4e-5 H 0.4688 v -4.25 h 0.98438 z" />
    </symbol>
    <symbol
       overflow="visible"
       id="i">
      <path
         inkscape:connector-curvature="0"
         id="path854"
         d="M 0.0625,-3.0625 H 1.04688 L 1.875,-0.9844 2.5625,-3.0625 H 3.54688 L 2.26568,0.2969 C 2.12896,0.62893 1.97271,0.86331 1.79693,1.00002 1.62896,1.13283 1.40631,1.20314 1.12505,1.20314 H 0.56255 V 0.56252 h 0.29688 c 0.16406,0 0.28516,-0.027344 0.35938,-0.078125 0.082031,-0.054687 0.14453,-0.14844 0.1875,-0.28125 L 1.43756,0.12502 Z" />
    </symbol>
    <symbol
       overflow="visible"
       id="h">
      <path
         inkscape:connector-curvature="0"
         id="path857"
         d="M 2.9844,-0.75 H 1.3438 L 1.07818,0 h -1.0469 l 1.5,-4.0781 h 1.2656 L 4.29688,0 H 3.24998 Z M 1.6094,-1.5 H 2.7188 L 2.17192,-3.125 Z" />
    </symbol>
    <symbol
       overflow="visible"
       id="g">
      <path
         inkscape:connector-curvature="0"
         id="path860"
         d="m 3.3125,-2.5469 c 0.11328,-0.1875 0.25391,-0.33203 0.42188,-0.4375 0.17578,-0.10156 0.36719,-0.15625 0.57812,-0.15625 0.34375,0 0.60938,0.10938 0.79688,0.32812 0.1875,0.21874 0.28125,0.53906 0.28125,0.95312 V -1e-5 H 4.40625 v -1.5938 -0.0625 -0.125 c 0,-0.21875 -0.03125,-0.375 -0.09375,-0.46875 C 4.25,-2.34381 4.14453,-2.39068 4,-2.39068 c -0.1875,0 -0.33594,0.078125 -0.4375,0.23438 -0.09375,0.14844 -0.14062,0.36719 -0.14062,0.65625 v 1.5 H 2.4375 v -1.5938 c 0,-0.34375 -0.03125,-0.5625 -0.09375,-0.65625 -0.054688,-0.09375 -0.15625,-0.14062 -0.3125,-0.14062 -0.1875,0 -0.33594,0.078125 -0.4375,0.23438 C 1.5,-2.0079 1.45313,-1.78915 1.45313,-1.50009 v 1.5 H 0.46875 v -3.0625 h 0.98438 v 0.45312 c 0.11328,-0.17578 0.25,-0.30469 0.40625,-0.39062 0.15625,-0.09375 0.32812,-0.14062 0.51562,-0.14062 0.20703,0 0.39062,0.054687 0.54688,0.15625 0.16406,0.10547 0.29688,0.25 0.39062,0.4375 z" />
    </symbol>
    <symbol
       overflow="visible"
       id="f">
      <path
         inkscape:connector-curvature="0"
         id="path863"
         d="M 3.5469,-1.8594 V 0 H 2.56252 v -1.4219 c 0,-0.26953 -0.00781,-0.45312 -0.015625,-0.54688 -0.011719,-0.10156 -0.03125,-0.17578 -0.0625,-0.21875 -0.042969,-0.0625 -0.09375,-0.10938 -0.15625,-0.14062 -0.0625,-0.039063 -0.13672,-0.0625 -0.21875,-0.0625 -0.21094,0 -0.37109,0.078125 -0.48438,0.23438 -0.11719,0.15625 -0.17188,0.375 -0.17188,0.65625 v 1.5 h -0.98438 v -3.0625 h 0.98438 v 0.45312 c 0.14453,-0.17578 0.30078,-0.30469 0.46875,-0.39062 0.16406,-0.09375 0.34766,-0.14062 0.54688,-0.14062 0.35156,0 0.61719,0.10938 0.79688,0.32812 0.1875,0.21875 0.28125,0.53906 0.28125,0.95312 z" />
    </symbol>
    <symbol
       overflow="visible"
       id="r">
      <path
         inkscape:connector-curvature="0"
         id="path866"
         d="m 2.4844,-4.25 v 0.64062 H 1.93752 c -0.13672,0 -0.23047,0.027344 -0.28125,0.078125 -0.054688,0.054688 -0.078125,0.14062 -0.078125,0.26562 v 0.20312 h 0.82812 v 0.70312 H 1.578145 V 5e-6 h -0.98438 v -2.3594 h -0.48438 v -0.70312 h 0.48438 v -0.20312 c 0,-0.33203 0.09375,-0.57812 0.28125,-0.73438 0.1875,-0.16406 0.47266,-0.25 0.85938,-0.25 z" />
    </symbol>
    <symbol
       overflow="visible"
       id="d">
      <path
         inkscape:connector-curvature="0"
         id="path869"
         d="m 1.9219,-2.4375 c -0.21875,0 -0.38672,0.078125 -0.5,0.23438 -0.10547,0.15625 -0.15625,0.38281 -0.15625,0.67188 0,0.29297 0.050781,0.51562 0.15625,0.67188 0.11328,0.15625 0.28125,0.23438 0.5,0.23438 0.21875,0 0.37891,-0.078125 0.48438,-0.23438 0.11328,-0.15625 0.17188,-0.37891 0.17188,-0.67188 0,-0.28906 -0.058594,-0.51562 -0.17188,-0.67188 C 2.30081,-2.35937 2.14066,-2.4375 1.9219,-2.4375 Z m 0,-0.70312 c 0.53125,0 0.94141,0.14844 1.2344,0.4375 0.30078,0.28125 0.45312,0.67188 0.45312,1.1719 0,0.51172 -0.15234,0.90625 -0.45312,1.1875 -0.29297,0.28125 -0.70312,0.42188 -1.2344,0.42188 -0.52344,0 -0.93359,-0.14062 -1.2344,-0.42188 -0.30469,-0.28125 -0.45312,-0.67578 -0.45312,-1.1875 0,-0.5 0.14844,-0.89062 0.45312,-1.1719 0.30078,-0.28906 0.71094,-0.4375 1.2344,-0.4375 z" />
    </symbol>
    <symbol
       overflow="visible"
       id="q">
      <path
         inkscape:connector-curvature="0"
         id="path872"
         d="M 3.5469,-1.8594 V 0 H 2.56252 v -1.4219 c 0,-0.26953 -0.00781,-0.45312 -0.015625,-0.54688 -0.011719,-0.10156 -0.03125,-0.17578 -0.0625,-0.21875 -0.042969,-0.0625 -0.09375,-0.10938 -0.15625,-0.14062 -0.0625,-0.039063 -0.13672,-0.0625 -0.21875,-0.0625 -0.21094,0 -0.37109,0.078125 -0.48438,0.23438 -0.11719,0.15625 -0.17188,0.375 -0.17188,0.65625 v 1.5 h -0.98438 v -4.25 h 0.98438 v 1.6406 c 0.14453,-0.17578 0.30078,-0.30469 0.46875,-0.39062 0.16406,-0.09375 0.34766,-0.14062 0.54688,-0.14062 0.35156,0 0.61719,0.10938 0.79688,0.32812 0.1875,0.21875 0.28125,0.53906 0.28125,0.95312 z" />
    </symbol>
    <symbol
       overflow="visible"
       id="p">
      <path
         inkscape:connector-curvature="0"
         id="path875"
         d="m 0.51562,-4.0781 h 1.1719 l 1.4844,2.7969 v -2.7969 h 1 V 0 H 3.00002 L 1.51562,-2.7969 V 0 h -1 z" />
    </symbol>
    <symbol
       overflow="visible"
       id="o">
      <path
         inkscape:connector-curvature="0"
         id="path878"
         d="m 0.4375,-1.1875 v -1.875 h 0.98438 v 0.3125 0.625 0.5 c 0,0.24219 0.00391,0.41797 0.015625,0.53125 0.00781,0.10547 0.03125,0.18359 0.0625,0.23438 0.039062,0.0625 0.09375,0.11719 0.15625,0.15625 0.0625,0.03125 0.13281,0.046875 0.21875,0.046875 0.20703,0 0.36719,-0.078125 0.48438,-0.23438 0.11328,-0.15625 0.17188,-0.375 0.17188,-0.65625 v -1.5156 h 0.98438 v 3.0625 h -0.98438 v -0.4375 c -0.14844,0.17969 -0.30469,0.30859 -0.46875,0.39062 -0.16797,0.082031 -0.35156,0.125 -0.54688,0.125 -0.35547,0 -0.625,-0.10938 -0.8125,-0.32812 -0.17969,-0.21875 -0.26562,-0.53125 -0.26562,-0.9375 z" />
    </symbol>
    <symbol
       overflow="visible"
       id="n">
      <path
         inkscape:connector-curvature="0"
         id="path881"
         d="m 0.51562,-4.0781 h 1.75 c 0.50781,0 0.90625,0.11719 1.1875,0.34375 0.28125,0.23047 0.42188,0.55859 0.42188,0.98438 0,0.42969 -0.14062,0.75781 -0.42188,0.98438 -0.28125,0.23047 -0.67969,0.34375 -1.1875,0.34375 H 1.5625 V 6e-5 H 0.5156 Z m 1.0469,0.76562 v 1.1406 h 0.57812 c 0.20703,0 0.36328,-0.046875 0.46875,-0.14062 0.11328,-0.10156 0.17188,-0.25 0.17188,-0.4375 0,-0.17578 -0.058594,-0.3125 -0.17188,-0.40625 C 2.50392,-3.25781 2.34767,-3.3125 2.14064,-3.3125 Z" />
    </symbol>
    <symbol
       overflow="visible"
       id="m">
      <path
         inkscape:connector-curvature="0"
         id="path884"
         d="m 0.46875,-3.0625 h 0.98438 v 3.0156 c 0,0.40625 -0.10156,0.71094 -0.29688,0.92188 C 0.95703,1.09373 0.67187,1.2031 0.29687,1.2031 H -0.18751 V 0.56248 h 0.17188 c 0.1875,0 0.3125,-0.042969 0.375,-0.125 C 0.429683,0.351542 0.46875,0.19139 0.46875,-0.0469 Z m 0,-1.1875 h 0.98438 v 0.79688 H 0.46875 Z" />
    </symbol>
    <symbol
       overflow="visible"
       id="l">
      <path
         inkscape:connector-curvature="0"
         id="path887"
         d="m 2.9375,-2.9688 v 0.79688 C 2.8125,-2.253951 2.67969,-2.31645 2.54688,-2.35942 2.41016,-2.410201 2.26954,-2.437545 2.125,-2.437545 c -0.27344,0 -0.48438,0.085938 -0.64062,0.25 -0.14844,0.15625 -0.21875,0.375 -0.21875,0.65625 0,0.29297 0.070313,0.51562 0.21875,0.67188 0.15625,0.15625 0.36719,0.23438 0.64062,0.23438 0.15625,0 0.30078,-0.019531 0.4375,-0.0625 0.13281,-0.039062 0.25781,-0.10938 0.375,-0.20312 v 0.79688 c -0.14844,0.0625 -0.30469,0.10156 -0.46875,0.125 C 2.3125,0.062475 2.15625,0.0781 2,0.0781 c -0.55469,0 -0.98438,-0.14062 -1.2969,-0.42188 -0.31252,-0.28126 -0.46875,-0.67578 -0.46875,-1.1875 0,-0.5 0.15625,-0.89062 0.46875,-1.1719 0.3125,-0.28906 0.74219,-0.4375 1.2969,-0.4375 0.16406,0 0.32031,0.015625 0.46875,0.046875 0.15625,0.03125 0.3125,0.074219 0.46875,0.125 z" />
    </symbol>
  </defs>
  <g
     id="g958">
    <path
       style="color:#000000;font-style:normal;font-variant:normal;font-weight:normal;font-stretch:normal;font-size:medium;line-height:normal;font-family:sans-serif;font-variant-ligatures:normal;font-variant-position:normal;font-variant-caps:normal;font-variant-numeric:normal;font-variant-alternates:normal;font-variant-east-asian:normal;font-feature-settings:normal;font-variation-settings:normal;text-indent:0;text-align:start;text-decoration:none;text-decoration-line:none;text-decoration-style:solid;text-decoration-color:#000000;letter-spacing:normal;word-spacing:normal;text-transform:none;writing-mode:lr-tb;direction:ltr;text-orientation:mixed;dominant-baseline:auto;baseline-shift:baseline;text-anchor:start;white-space:normal;shape-padding:0;shape-margin:0;inline-size:0;clip-rule:nonzero;display:inline;overflow:visible;visibility:visible;opacity:1;isolation:auto;mix-blend-mode:normal;color-interpolation:sRGB;color-interpolation-filters:linearRGB;solid-color:#000000;solid-opacity:1;vector-effect:none;fill:#ff00ff;fill-opacity:1;fill-rule:evenodd;stroke:none;stroke-width:0.75;stroke-linecap:round;stroke-linejoin:round;stroke-miterlimit:4;stroke-dasharray:none;stroke-dashoffset:0;stroke-opacity:1;color-rendering:auto;image-rendering:auto;shape-rendering:auto;text-rendering:auto;enable-background:accumulate;stop-color:#000000;stop-opacity:1"
       d="M 2.625,0.75 C 1.5927365,0.75 0.75,1.5927365 0.75,2.625 v 6.75 c 0,1.032264 0.8427365,1.875 1.875,1.875 h 6.75 c 1.032264,0 1.875,-0.842736 1.875,-1.875 V 2.625 C 11.25,1.5927365 10.407264,0.75 9.375,0.75 Z m 0,0.75 h 6.75 c 0.629736,0 1.125,0.4952635 1.125,1.125 v 6.75 c 0,0.629736 -0.495264,1.125 -1.125,1.125 H 2.625 C 1.9952635,10.5 1.5,10.004736 1.5,9.375 V 2.625 C 1.5,1.9952635 1.9952635,1.5 2.625,1.5 Z"
       id="path882"
       inkscape:connector-curvature="0" />
    <circle
       r="3"
       cy="6"
       cx="6"
       id="path883"
       style="fill:#ff00ff;fill-opacity:1;fill-rule:evenodd;stroke:none;stroke-width:0.750001;stroke-linecap:round;stroke-linejoin:round;stroke-opacity:0" />
  </g>
</svg>
