<?xml version="1.0" encoding="UTF-8" standalone="no"?>
<svg
   xmlns:dc="http://purl.org/dc/elements/1.1/"
   xmlns:cc="http://creativecommons.org/ns#"
   xmlns:rdf="http://www.w3.org/1999/02/22-rdf-syntax-ns#"
   xmlns:svg="http://www.w3.org/2000/svg"
   xmlns="http://www.w3.org/2000/svg"
   xmlns:sodipodi="http://sodipodi.sourceforge.net/DTD/sodipodi-0.dtd"
   xmlns:inkscape="http://www.inkscape.org/namespaces/inkscape"
   inkscape:version="1.0rc1 (09960d6, 2020-04-09)"
   sodipodi:docname="home.svg"
   id="svg835"
   version="1.1"
   color="#000000"
   fill="none"
   viewBox="0 0 24 24"
   stroke-width="1.5"
   height="24px"
   width="24px">
  <metadata
     id="metadata841">
    <rdf:RDF>
      <cc:Work
         rdf:about="">
        <dc:format>image/svg+xml</dc:format>
        <dc:type
           rdf:resource="http://purl.org/dc/dcmitype/StillImage" />
      </cc:Work>
    </rdf:RDF>
  </metadata>
  <defs
     id="defs839" />
  <sodipodi:namedview
     inkscape:current-layer="svg835"
     inkscape:window-maximized="0"
     inkscape:window-y="48"
     inkscape:window-x="290"
     inkscape:cy="12.887448"
     inkscape:cx="11.638307"
     inkscape:zoom="14.899291"
     showgrid="false"
     id="namedview837"
     inkscape:window-height="812"
     inkscape:window-width="1378"
     inkscape:pageshadow="2"
     inkscape:pageopacity="0"
     guidetolerance="10"
     gridtolerance="10"
     objecttolerance="10"
     borderopacity="1"
     bordercolor="#666666"
     pagecolor="#ffffff" />
  <path
     id="path845"
     d="M 11.974609 3.25 A 0.750075 0.750075 0 0 0 11.609375 3.359375 L 2.609375 8.859375 A 0.75 0.75 0 0 0 2.359375 9.890625 A 0.75 0.75 0 0 0 3.390625 10.140625 L 12 4.8789062 L 20.609375 10.140625 A 0.75 0.75 0 0 0 21.640625 9.890625 A 0.75 0.75 0 0 0 21.390625 8.859375 L 12.390625 3.359375 A 0.750075 0.750075 0 0 0 11.974609 3.25 z M 5 12.25 A 0.75 0.75 0 0 0 4.25 13 L 4.25 19.400391 C 4.25 20.137092 4.8629084 20.75 5.5996094 20.75 L 18.400391 20.75 C 19.137092 20.75 19.75 20.137092 19.75 19.400391 L 19.75 13 A 0.75 0.75 0 0 0 19 12.25 A 0.75 0.75 0 0 0 18.25 13 L 18.25 19.25 L 5.75 19.25 L 5.75 13 A 0.75 0.75 0 0 0 5 12.25 z "
     style="color:#000000;font-style:normal;font-variant:normal;font-weight:normal;font-stretch:normal;font-size:medium;line-height:normal;font-family:sans-serif;font-variant-ligatures:normal;font-variant-position:normal;font-variant-caps:normal;font-variant-numeric:normal;font-variant-alternates:normal;font-variant-east-asian:normal;font-feature-settings:normal;font-variation-settings:normal;text-indent:0;text-align:start;text-decoration:none;text-decoration-line:none;text-decoration-style:solid;text-decoration-color:#000000;letter-spacing:normal;word-spacing:normal;text-transform:none;writing-mode:lr-tb;direction:ltr;text-orientation:mixed;dominant-baseline:auto;baseline-shift:baseline;text-anchor:start;white-space:normal;shape-padding:0;shape-margin:0;inline-size:0;clip-rule:nonzero;display:inline;overflow:visible;visibility:visible;isolation:auto;mix-blend-mode:normal;color-interpolation:sRGB;color-interpolation-filters:linearRGB;solid-color:#000000;solid-opacity:1;vector-effect:none;fill:#000000;fill-opacity:1;fill-rule:nonzero;stroke:none;stroke-width:1.5;stroke-linecap:round;stroke-linejoin:round;stroke-miterlimit:4;stroke-dasharray:none;stroke-dashoffset:0;stroke-opacity:1;color-rendering:auto;image-rendering:auto;shape-rendering:auto;text-rendering:auto;enable-background:accumulate;stop-color:#000000;stop-opacity:1;opacity:1" />
</svg>
